# xmcd
#
# Track frame offsets:
#	150
#	19269
#	39530
#	59999
#	78319
#	96149
#	127125
#	146709
#	166283
#	181674
#	200725
#	223183
#	238533
#	256343
#	274110
#
# Disc length: 3967 seconds
#
# Revision: 3
# Processed by: cddbd v1.5.2PL0 Copyright (c) Steve Scherf et al.
# Submitted via: Jack! The Knife 18 Bulletproof
#
DISCID=e40f7d0f
DTITLE=Simply Red - Song Book [CD 1)
DYEAR=2013
DGENRE=Pop
TTITLE0=Money's Too Tight (To Mention)
TTITLE1=Holding Back The Years
TTITLE2=Sad Old Red
TTITLE3=Come To My Aid
TTITLE4=Open Up The Red Box
TTITLE5=Jericho
TTITLE6=The Right Thing
TTITLE7=Maybe Someday...
TTITLE8=Ev'ry Time We Say Goodbye
TTITLE9=I Won't Feel Bad
TTITLE10=It's Only Love
TTITLE11=If You Don't Know Me By Now
TTITLE12=A New Flame
TTITLE13=You've Got It
TTITLE14=Enough
EXTD=
EXTT0=
EXTT1=
EXTT2=
EXTT3=
EXTT4=
EXTT5=
EXTT6=
EXTT7=
EXTT8=
EXTT9=
EXTT10=
EXTT11=
EXTT12=
EXTT13=
EXTT14=
PLAYORDER=
